<svg width="394" height="40" viewBox="0 0 394 40" fill="none" xmlns="http://www.w3.org/2000/svg">
<line x1="0.277344" y1="19.5" x2="159.277" y2="19.5" stroke="#C2964B"/>
<g clip-path="url(#clip0_1427_30826)">
<path d="M208.742 26.9139C208.356 26.574 207.923 26.2959 207.475 26.0487C207.027 25.8169 206.548 25.6161 206.054 25.4925C205.575 25.3689 205.096 25.2762 204.601 25.2607C204.092 25.2298 203.597 25.2607 203.087 25.3534C202.84 25.3998 202.593 25.4616 202.346 25.5234C202.114 25.5852 201.882 25.6779 201.666 25.7551C201.233 25.9251 200.832 26.1568 200.43 26.404C199.627 26.9448 198.9 27.6709 198.468 28.5361C198.205 29.046 198.066 29.6331 198.143 30.2047C198.854 29.4786 199.611 28.8142 200.476 28.2735C200.893 28.0108 201.341 27.7945 201.79 27.6091C202.068 27.501 202.346 27.4083 202.624 27.331C202.763 27.3001 202.917 27.2538 203.056 27.2383C203.149 27.2383 203.226 27.2074 203.319 27.192C203.458 27.1765 203.597 27.1611 203.736 27.1456C203.983 27.1302 204.231 27.1302 204.462 27.1456C205.389 27.2074 206.301 27.4855 207.12 27.949C207.923 28.428 208.618 29.0769 209.097 29.8803C209.345 30.2974 209.545 30.7455 209.669 31.209C209.731 31.4098 209.762 31.6107 209.793 31.8115C209.824 31.9969 209.839 32.1978 209.824 32.3832V32.4141C209.793 32.4141 209.777 32.1978 209.777 32.1669C209.762 32.0742 209.746 31.9815 209.715 31.8888C209.669 31.6879 209.623 31.5025 209.561 31.3171C209.406 30.8536 209.19 30.421 208.912 30.0193C208.402 29.2623 207.691 28.6443 206.873 28.2426C206.007 27.81 205.034 27.5937 204.076 27.64C203.535 27.6709 202.995 27.7791 202.485 27.9645C201.604 28.258 200.816 28.7679 200.09 29.3395C199.58 29.7567 199.117 30.2047 198.669 30.6837C199.627 30.8227 200.584 30.4828 201.481 30.1893C201.959 30.0348 202.423 29.8803 202.902 29.7721C203.149 29.7103 203.396 29.6794 203.644 29.6485C203.875 29.6176 204.138 29.6022 204.37 29.6176C204.864 29.6485 205.343 29.7258 205.822 29.8803C206.301 30.0348 206.749 30.2665 207.151 30.5601C207.537 30.8536 207.877 31.209 208.139 31.6107C208.263 31.7961 208.371 31.9969 208.464 32.2132C208.557 32.4295 208.634 32.6613 208.68 32.893C208.727 33.1093 208.742 33.3256 208.757 33.5419C208.757 33.7891 208.742 34.0518 208.696 34.299C208.649 34.5462 208.588 34.7779 208.51 35.0097C208.433 35.2414 208.325 35.4577 208.217 35.674C208.17 35.7667 208.109 35.8749 208.062 35.9676C208.031 36.0139 208.016 36.0603 208 36.1066C208 36.1375 207.97 36.1839 208 36.2148C208.016 36.2457 208.078 36.2457 208.109 36.2457C208.17 36.2457 208.217 36.2457 208.263 36.2302C208.371 36.2148 208.479 36.1684 208.588 36.1221C208.804 36.0294 209.02 35.9212 209.206 35.7822C209.607 35.5041 209.963 35.1333 210.241 34.7316C210.519 34.3144 210.751 33.8664 210.905 33.3874C211.044 32.9239 211.121 32.445 211.137 31.966C211.168 31.039 210.951 30.112 210.581 29.2777C210.163 28.3662 209.545 27.5473 208.788 26.8984L208.742 26.9139Z" fill="#C2964B"/>
<path d="M208.495 21.4755C208.495 21.4755 208.495 21.46 208.526 21.4291C208.526 21.4291 208.511 21.46 208.495 21.4755Z" fill="#C2964B"/>
<path d="M213.996 18.3237C213.857 18.1537 213.702 17.9838 213.548 17.8447C213.239 17.5666 212.914 17.3349 212.574 17.1186C211.771 16.6396 210.875 16.3306 209.963 16.207C209.021 16.068 208.047 16.1143 207.105 16.2997C206.193 16.4697 205.313 16.7941 204.494 17.2267C203.721 17.6439 203.011 18.1846 202.377 18.7717C201.744 19.3588 201.188 20.0077 200.678 20.703C200.153 21.4446 199.704 22.2325 199.303 23.0359C199.086 23.4685 198.87 23.9011 198.669 24.3337C198.484 24.7199 198.283 25.1062 198.129 25.5233C198.082 25.6624 198.02 25.8014 197.974 25.9405C197.974 25.9868 197.943 26.0332 197.928 26.0795C197.928 26.0795 197.928 26.1259 197.928 26.1413C198.376 25.5542 198.839 24.9826 199.303 24.4264C199.905 23.7157 200.523 23.0205 201.172 22.3561C201.837 21.6763 202.516 21.0274 203.258 20.4403C203.984 19.8532 204.741 19.3125 205.545 18.849C206.317 18.4164 207.136 18.0456 208.001 17.8138C208.387 17.7057 208.789 17.6284 209.206 17.5975C209.376 17.5821 209.562 17.5666 209.732 17.5666C209.747 17.5666 210.01 17.5666 210.01 17.5821C210.01 17.613 209.747 17.6284 209.732 17.6439C209.562 17.6748 209.376 17.7057 209.206 17.7366C208.789 17.8138 208.387 17.922 208.001 18.061C207.151 18.3546 206.363 18.7717 205.606 19.2507C204.834 19.7451 204.108 20.3167 203.428 20.9347C202.764 21.5373 202.13 22.1862 201.528 22.8505C200.925 23.5149 200.338 24.2101 199.782 24.9208C199.365 25.4615 198.947 26.0023 198.546 26.5585C198.592 26.5894 198.669 26.543 198.716 26.5276C198.839 26.4812 198.947 26.4194 199.056 26.3576C199.411 26.1568 199.766 25.9405 200.106 25.7242C200.894 25.2298 201.713 24.7663 202.547 24.3492C202.934 24.1483 203.335 23.9784 203.737 23.8084C204.17 23.6385 204.602 23.4376 205.019 23.2368C205.823 22.8505 206.611 22.4488 207.414 22.0471C207.677 21.9081 207.939 21.7845 208.202 21.6454C208.279 21.5991 208.372 21.5527 208.449 21.5064C208.496 21.4755 208.542 21.4446 208.573 21.3982C208.573 21.3982 208.604 21.2592 208.542 21.1974C208.403 21.0583 208.187 21.012 208.001 20.9502C207.785 20.8884 207.569 20.8575 207.352 20.7648C208.032 20.224 208.712 19.7142 209.5 19.3434C210.35 18.9417 211.261 18.7254 212.204 18.679C212.636 18.6636 213.069 18.679 213.501 18.7099C213.671 18.7099 213.841 18.7254 214.011 18.7254C214.073 18.7254 214.197 18.7254 214.243 18.6636C214.274 18.6172 214.243 18.5554 214.212 18.5245C214.166 18.4318 214.104 18.3546 214.058 18.2773L213.996 18.3237Z" fill="#C2964B"/>
<path d="M193.539 26.4195C193.153 26.1568 192.736 25.9405 192.303 25.7706C192.087 25.6779 191.855 25.6006 191.624 25.5388C191.376 25.4616 191.129 25.3998 190.882 25.3689C190.388 25.2916 189.878 25.2453 189.368 25.2762C188.873 25.2916 188.395 25.3843 187.916 25.5079C187.421 25.6315 186.942 25.8324 186.494 26.0641C186.046 26.2959 185.614 26.5894 185.227 26.9293C184.47 27.5782 183.852 28.3816 183.435 29.3086C183.064 30.1429 182.848 31.0699 182.879 31.9969C182.879 32.4758 182.972 32.9548 183.111 33.4183C183.265 33.8972 183.481 34.3453 183.775 34.7624C184.053 35.1641 184.408 35.5195 184.81 35.813C185.011 35.9521 185.212 36.0602 185.428 36.1529C185.536 36.1993 185.644 36.2302 185.753 36.2611C185.799 36.2611 185.861 36.2765 185.907 36.2765C185.938 36.2765 186 36.2765 186.015 36.2456C186.031 36.2147 186.015 36.1684 186.015 36.1375C186 36.0911 185.969 36.0448 185.953 35.9984C185.907 35.9057 185.845 35.813 185.799 35.7049C185.691 35.4886 185.583 35.2723 185.505 35.0405C185.428 34.8088 185.351 34.577 185.32 34.3298C185.274 34.0826 185.258 33.8354 185.258 33.5728C185.258 33.3565 185.274 33.1247 185.335 32.9239C185.397 32.6921 185.459 32.4604 185.552 32.2441C185.644 32.0278 185.753 31.8269 185.876 31.6415C186.139 31.2398 186.479 30.8845 186.865 30.591C187.267 30.282 187.73 30.0657 188.194 29.9112C188.657 29.7567 189.152 29.6794 189.646 29.6485C189.893 29.6485 190.14 29.6485 190.372 29.6794C190.619 29.7103 190.867 29.7567 191.114 29.803C191.593 29.9112 192.072 30.0657 192.535 30.2202C193.431 30.5137 194.389 30.8536 195.347 30.7145C194.899 30.2356 194.435 29.7721 193.926 29.3704C193.199 28.7988 192.412 28.3044 191.531 27.9954C191.021 27.8254 190.48 27.7018 189.94 27.6709C188.982 27.6246 188.008 27.8409 187.143 28.2735C186.324 28.6906 185.614 29.2932 185.104 30.0502C184.826 30.4519 184.609 30.9 184.455 31.348C184.393 31.5334 184.331 31.7342 184.3 31.9196C184.285 32.0123 184.269 32.105 184.238 32.1977C184.238 32.2132 184.208 32.4449 184.192 32.4449V32.414C184.161 32.2286 184.192 32.0278 184.223 31.8424C184.254 31.6416 184.285 31.4407 184.347 31.2398C184.47 30.7764 184.671 30.3283 184.918 29.9112C185.397 29.1078 186.092 28.4434 186.896 27.9799C187.699 27.5164 188.611 27.2383 189.553 27.1765C189.8 27.1765 190.048 27.1765 190.295 27.1765C190.434 27.1765 190.573 27.192 190.712 27.2229C190.805 27.2229 190.882 27.2538 190.975 27.2692C191.129 27.3001 191.268 27.331 191.407 27.3619C191.685 27.4237 191.963 27.5319 192.242 27.64C192.705 27.8254 193.138 28.0417 193.555 28.3044C194.42 28.8451 195.177 29.5095 195.888 30.2356C195.98 29.664 195.826 29.0769 195.563 28.567C195.131 27.6864 194.405 26.9602 193.601 26.4349L193.539 26.4195Z" fill="#C2964B"/>
<path d="M196.074 25.9405C196.027 25.8014 195.981 25.6624 195.919 25.5233C195.765 25.1216 195.564 24.7354 195.378 24.3337C195.162 23.9011 194.961 23.4685 194.745 23.0359C194.343 22.2325 193.895 21.4446 193.37 20.703C192.876 20.0077 192.304 19.3588 191.67 18.7717C191.022 18.1846 190.326 17.6439 189.554 17.2267C188.735 16.7941 187.854 16.4697 186.943 16.2997C186 16.1143 185.042 16.068 184.085 16.207C183.173 16.3461 182.277 16.6396 181.473 17.1186C181.118 17.3349 180.794 17.5666 180.5 17.8447C180.33 17.9992 180.176 18.1537 180.037 18.3237C179.975 18.4009 179.913 18.4782 179.882 18.5709C179.867 18.6018 179.82 18.679 179.851 18.7099C179.882 18.7717 180.021 18.7717 180.083 18.7717C180.253 18.7717 180.423 18.7717 180.593 18.7563C181.025 18.7254 181.458 18.7099 181.891 18.7254C182.833 18.7563 183.745 18.9726 184.594 19.3897C185.367 19.7605 186.062 20.2858 186.742 20.8111C186.541 20.8884 186.309 20.9347 186.093 20.9965C185.908 21.0429 185.691 21.1047 185.552 21.2437C185.49 21.3055 185.46 21.3673 185.521 21.4446C185.552 21.4909 185.599 21.5218 185.645 21.5527C185.722 21.5991 185.799 21.6454 185.892 21.6918C186.155 21.8308 186.417 21.9544 186.68 22.0935C187.484 22.4952 188.271 22.8969 189.075 23.2831C189.492 23.484 189.925 23.6848 190.357 23.8547C190.759 24.0247 191.161 24.1946 191.547 24.3955C192.381 24.8126 193.2 25.2761 193.988 25.7705C194.328 25.9868 194.683 26.2031 195.039 26.404C195.147 26.4658 195.255 26.5276 195.378 26.5739C195.409 26.5894 195.502 26.6357 195.548 26.6048C195.147 26.0486 194.73 25.5079 194.312 24.9671C193.756 24.2564 193.169 23.5612 192.567 22.8969C191.964 22.2325 191.331 21.5836 190.666 20.9811C189.986 20.3631 189.26 19.7914 188.488 19.297C187.746 18.8181 186.943 18.4009 186.093 18.1074C185.691 17.9683 185.29 17.8602 184.888 17.7829C184.718 17.752 184.533 17.7211 184.363 17.6902C184.347 17.6902 184.069 17.6593 184.085 17.6284C184.085 17.5975 184.332 17.613 184.363 17.613C184.533 17.613 184.718 17.613 184.888 17.6439C185.29 17.6902 185.691 17.7675 186.093 17.8602C186.958 18.0919 187.777 18.4473 188.55 18.8953C189.353 19.3588 190.125 19.8996 190.836 20.4867C191.562 21.0892 192.258 21.7381 192.922 22.4025C193.571 23.0668 194.189 23.7621 194.791 24.4727C195.27 25.0289 195.718 25.6006 196.166 26.1877C196.166 26.1877 196.166 26.1413 196.166 26.1259C196.166 26.0795 196.135 26.0332 196.12 25.9868L196.074 25.9405Z" fill="#C2964B"/>
<path d="M199.781 12.9162C199.364 12.978 198.931 13.0861 198.622 13.287C198.082 11.7265 197.278 10.5987 196.954 10.5987C196.629 10.5987 195.872 11.7111 195.347 13.2561C195.038 13.0707 194.636 12.9625 194.219 12.9162C193.014 12.7617 192.458 13.6423 192.921 13.5342C193.385 13.4106 193.972 13.7196 194.188 14.0904C194.405 14.4612 194.374 14.8474 194.374 15.2337C194.343 15.7435 194.096 17.3349 194.528 19.3125C194.899 21.2746 195.965 23.6076 196.83 25.5697C196.738 21.0892 196.738 13.9977 196.938 13.9977C197.139 13.9977 197.186 21.0892 197.108 25.5697C197.958 23.5149 199.009 21.1819 199.395 19.2352C199.843 17.2885 199.627 15.7281 199.611 15.2337C199.611 14.8474 199.58 14.4612 199.797 14.0904C200.013 13.7196 200.6 13.426 201.064 13.5342C201.527 13.6578 200.986 12.7617 199.766 12.9162H199.781Z" fill="#C2964B"/>
<path d="M201.435 17.0723C201.312 16.995 201.173 16.9641 201.034 16.9796C200.894 17.0105 200.786 17.0877 200.694 17.2268C200.647 17.2886 200.632 17.3658 200.632 17.4276C200.632 17.5049 200.632 17.5667 200.647 17.6285C200.678 17.7521 200.771 17.8757 200.91 17.9375C201.034 17.9993 201.188 18.0147 201.312 17.9838C201.373 17.9684 201.435 17.9375 201.482 17.9066C201.528 17.8757 201.574 17.8293 201.605 17.7675C201.682 17.6594 201.682 17.5203 201.652 17.3967C201.621 17.2731 201.543 17.1495 201.42 17.0723H201.435Z" fill="#C2964B"/>
<path d="M203.058 15.6354C203.058 15.6354 202.996 15.4809 202.934 15.4191C202.872 15.3573 202.81 15.2955 202.733 15.2646C202.702 15.2492 202.656 15.2337 202.625 15.2183C202.579 15.2183 202.548 15.2028 202.501 15.2028C202.424 15.2028 202.331 15.2028 202.254 15.2337C202.208 15.2337 202.177 15.2646 202.146 15.2955C202.115 15.311 202.069 15.3419 202.038 15.3728C201.914 15.4964 201.837 15.6663 201.853 15.8363C201.853 16.0062 201.93 16.1607 202.069 16.2689C202.208 16.377 202.362 16.4388 202.517 16.4388C202.671 16.4388 202.826 16.3925 202.934 16.2843C202.965 16.2534 202.98 16.2225 203.011 16.1916C203.027 16.1607 203.058 16.1298 203.058 16.0989C203.089 16.0371 203.104 15.9599 203.104 15.8826C203.104 15.8363 203.104 15.8054 203.104 15.759C203.104 15.7127 203.104 15.6818 203.073 15.6354H203.058Z" fill="#C2964B"/>
<path d="M204.417 13.8277C204.324 13.7968 204.231 13.7814 204.139 13.7968C204.092 13.7968 204.046 13.7968 204 13.8277C203.953 13.8432 203.907 13.8586 203.861 13.8895C203.768 13.9359 203.691 14.0131 203.629 14.0904C203.567 14.1676 203.536 14.2603 203.505 14.353C203.459 14.5384 203.505 14.7393 203.613 14.9092C203.722 15.0792 203.891 15.1873 204.061 15.2337C204.154 15.2646 204.231 15.2646 204.324 15.2491C204.417 15.2491 204.494 15.2182 204.571 15.1719C204.618 15.1564 204.649 15.1255 204.679 15.0946C204.71 15.0637 204.741 15.0328 204.772 15.0019C204.818 14.9401 204.865 14.8474 204.88 14.7702C204.927 14.6002 204.927 14.3994 204.834 14.214C204.757 14.0286 204.602 13.8895 204.417 13.8432V13.8277Z" fill="#C2964B"/>
<path d="M207.013 12.9471C206.828 12.8235 206.596 12.7617 206.349 12.8081C206.287 12.8081 206.225 12.839 206.179 12.8699C206.117 12.9008 206.07 12.9317 206.024 12.9626C205.978 12.9935 205.931 13.0398 205.901 13.0707C205.885 13.0862 205.87 13.1171 205.854 13.1325C205.839 13.1634 205.823 13.1789 205.808 13.2098C205.7 13.4106 205.669 13.6424 205.746 13.8587C205.823 14.0904 205.962 14.2604 206.148 14.3685C206.163 14.3685 206.194 14.3994 206.21 14.3994C206.225 14.3994 206.256 14.4303 206.271 14.4303C206.318 14.4458 206.364 14.4612 206.41 14.4767C206.457 14.4767 206.503 14.4921 206.549 14.4767C206.596 14.4767 206.642 14.4766 206.704 14.4612C206.905 14.4148 207.059 14.2913 207.183 14.1213C207.291 13.9514 207.368 13.7196 207.337 13.4879C207.306 13.2561 207.198 13.0553 207.013 12.9162V12.9471Z" fill="#C2964B"/>
<path d="M209.747 12.9008C209.592 12.6999 209.361 12.5609 209.083 12.5454C209.021 12.5454 208.943 12.5454 208.882 12.5454C208.82 12.5454 208.758 12.5763 208.696 12.5918C208.573 12.6381 208.465 12.6999 208.372 12.7926C208.326 12.839 208.295 12.8853 208.248 12.9317C208.217 12.978 208.186 13.0398 208.156 13.1016C208.109 13.2098 208.094 13.3488 208.094 13.4724C208.094 13.6115 208.125 13.7351 208.171 13.8432C208.186 13.905 208.217 13.9514 208.248 13.9977C208.279 14.0441 208.31 14.0904 208.356 14.1368C208.434 14.2295 208.526 14.2913 208.619 14.3531C208.665 14.384 208.712 14.3994 208.774 14.4149C208.82 14.4303 208.882 14.4458 208.944 14.4458C209.175 14.4612 209.392 14.384 209.561 14.2295C209.654 14.1522 209.731 14.0595 209.793 13.9514C209.855 13.8432 209.901 13.7196 209.917 13.596C209.932 13.4724 209.932 13.3334 209.917 13.2252C209.886 13.1016 209.84 12.9935 209.762 12.9008H209.747Z" fill="#C2964B"/>
<path d="M212.528 13.287C212.528 13.287 212.482 13.2252 212.451 13.1943C212.42 13.1634 212.389 13.1325 212.374 13.1171C212.312 13.0707 212.25 13.0089 212.173 12.978C212.096 12.9317 212.018 12.9008 211.941 12.8699C211.617 12.7617 211.277 12.8081 210.999 12.9626C210.736 13.1171 210.535 13.3797 210.473 13.7042C210.412 14.0286 210.473 14.3376 210.597 14.6003C210.736 14.8629 210.937 15.0483 211.215 15.141C211.277 15.1565 211.354 15.1719 211.416 15.1874C211.478 15.1874 211.555 15.1874 211.632 15.1874C211.663 15.1874 211.694 15.1874 211.74 15.1719C211.771 15.1719 211.802 15.1719 211.849 15.141C211.91 15.1256 211.988 15.0947 212.049 15.0638C212.312 14.9402 212.544 14.7084 212.667 14.3994C212.791 14.0904 212.791 13.766 212.667 13.4879C212.636 13.4106 212.59 13.3488 212.544 13.287H212.528Z" fill="#C2964B"/>
<path d="M215.171 14.1059C214.831 13.905 214.429 13.8741 214.089 13.9823C213.996 14.0132 213.919 14.0441 213.842 14.0904C213.765 14.1368 213.687 14.1831 213.626 14.2449C213.487 14.3685 213.378 14.523 213.301 14.693C213.224 14.8629 213.178 15.0483 213.162 15.2337C213.162 15.3264 213.162 15.4191 213.162 15.4964C213.162 15.5891 213.193 15.6663 213.208 15.7436C213.301 16.068 213.487 16.3461 213.78 16.5161C214.074 16.686 214.414 16.7169 214.738 16.6242C215.062 16.5315 215.387 16.3307 215.603 16.0062C215.82 15.6818 215.897 15.311 215.82 14.9556C215.742 14.6003 215.526 14.2758 215.171 14.075V14.1059Z" fill="#C2964B"/>
<path d="M193.308 17.2267C193.231 17.1031 193.107 17.0104 192.968 16.9795C192.829 16.9486 192.69 16.9795 192.567 17.0722C192.443 17.1495 192.366 17.2731 192.335 17.3967C192.304 17.5203 192.319 17.6593 192.381 17.7675C192.412 17.8293 192.458 17.8756 192.505 17.9065C192.551 17.9374 192.613 17.9683 192.675 17.9838C192.798 18.0147 192.953 17.9992 193.076 17.9374C193.2 17.8756 193.293 17.752 193.339 17.6284C193.354 17.5666 193.37 17.4894 193.354 17.4276C193.354 17.3503 193.324 17.2885 193.293 17.2267H193.308Z" fill="#C2964B"/>
<path d="M191.855 15.28C191.855 15.28 191.778 15.2337 191.732 15.2182C191.655 15.1873 191.577 15.1719 191.485 15.1873C191.438 15.1873 191.407 15.1873 191.361 15.2028C191.315 15.2028 191.284 15.2337 191.253 15.2491C191.176 15.28 191.114 15.3418 191.052 15.4036C190.99 15.4654 190.959 15.5427 190.928 15.6199C190.928 15.6663 190.913 15.6972 190.897 15.7435C190.897 15.7899 190.897 15.8208 190.897 15.8671C190.897 15.9444 190.913 16.0216 190.944 16.0834C190.944 16.1143 190.975 16.1452 190.99 16.1761C191.006 16.207 191.037 16.2379 191.067 16.2688C191.176 16.377 191.33 16.4233 191.485 16.4233C191.639 16.4233 191.794 16.3615 191.933 16.2534C192.072 16.1452 192.133 15.9753 192.149 15.8208C192.149 15.6508 192.087 15.4963 191.964 15.3573C191.933 15.3264 191.902 15.2955 191.855 15.28Z" fill="#C2964B"/>
<path d="M190.388 14.0904C190.388 14.0904 190.249 13.9514 190.156 13.8896C190.11 13.8587 190.063 13.8432 190.017 13.8278C189.971 13.8123 189.924 13.7969 189.878 13.7969C189.785 13.7969 189.677 13.7969 189.6 13.8278C189.415 13.8896 189.275 14.0286 189.183 14.1986C189.106 14.384 189.09 14.5848 189.136 14.7548C189.167 14.8475 189.198 14.9247 189.245 14.9865C189.275 15.0174 189.306 15.0483 189.337 15.0792C189.368 15.1101 189.399 15.141 189.445 15.1565C189.523 15.2028 189.6 15.2183 189.693 15.2337C189.77 15.2337 189.863 15.2337 189.955 15.2183C190.125 15.1719 190.295 15.0638 190.403 14.8938C190.511 14.7239 190.558 14.523 190.511 14.3376C190.496 14.2449 190.45 14.1522 190.388 14.075V14.0904Z" fill="#C2964B"/>
<path d="M188.163 13.1325C188.163 13.1325 188.132 13.0861 188.117 13.0707C188.086 13.0243 188.039 12.9934 187.993 12.9625C187.947 12.9316 187.9 12.9007 187.838 12.8698C187.777 12.8389 187.73 12.8235 187.669 12.808C187.421 12.7617 187.19 12.808 187.004 12.9471C186.819 13.0861 186.711 13.287 186.68 13.5187C186.649 13.7505 186.726 13.9822 186.834 14.1522C186.942 14.3221 187.112 14.4457 187.313 14.4921C187.36 14.4921 187.406 14.5075 187.468 14.5075C187.514 14.5075 187.56 14.5075 187.607 14.5075C187.653 14.5075 187.699 14.4766 187.746 14.4612C187.777 14.4612 187.792 14.4457 187.808 14.4303C187.823 14.4303 187.854 14.3994 187.869 14.3994C188.039 14.2912 188.194 14.1213 188.271 13.8895C188.348 13.6578 188.317 13.426 188.209 13.2406C188.209 13.2097 188.178 13.1943 188.163 13.1634V13.1325Z" fill="#C2964B"/>
<path d="M185.753 12.9317C185.753 12.9317 185.676 12.839 185.63 12.7926C185.537 12.6999 185.429 12.6381 185.305 12.5918C185.244 12.5763 185.182 12.5609 185.12 12.5454C185.058 12.5454 184.981 12.5454 184.919 12.5454C184.641 12.5609 184.409 12.6999 184.255 12.9008C184.178 12.9935 184.131 13.1171 184.1 13.2252C184.069 13.3488 184.069 13.4724 184.1 13.596C184.116 13.7196 184.162 13.8432 184.224 13.9514C184.286 14.0595 184.363 14.1522 184.456 14.2295C184.626 14.384 184.842 14.4612 185.074 14.4458C185.135 14.4458 185.182 14.4303 185.244 14.4149C185.29 14.4149 185.352 14.384 185.398 14.3531C185.491 14.3067 185.584 14.2295 185.661 14.1368C185.692 14.0904 185.738 14.0441 185.769 13.9977C185.8 13.9514 185.831 13.8896 185.846 13.8432C185.893 13.7351 185.923 13.6115 185.923 13.4724C185.923 13.3334 185.908 13.2098 185.862 13.1016C185.831 13.0398 185.815 12.9935 185.769 12.9317H185.753Z" fill="#C2964B"/>
<path d="M183.003 12.9626C182.74 12.8081 182.4 12.7617 182.06 12.8699C181.983 12.9008 181.906 12.9317 181.829 12.978C181.751 13.0244 181.689 13.0707 181.628 13.1171C181.597 13.148 181.566 13.1789 181.55 13.1943C181.52 13.2252 181.504 13.2561 181.473 13.287C181.427 13.3488 181.38 13.4106 181.35 13.4879C181.226 13.766 181.211 14.0904 181.35 14.3994C181.473 14.7084 181.705 14.9247 181.968 15.0638C182.029 15.0947 182.107 15.1256 182.168 15.141C182.199 15.141 182.23 15.1565 182.277 15.1719C182.307 15.1719 182.338 15.1719 182.385 15.1874C182.447 15.1874 182.524 15.1874 182.586 15.1874C182.647 15.1874 182.725 15.1719 182.786 15.141C183.065 15.0483 183.265 14.8629 183.404 14.6003C183.543 14.3376 183.59 14.0286 183.528 13.7042C183.466 13.3797 183.265 13.1171 183.003 12.9626Z" fill="#C2964B"/>
<path d="M180.376 14.2604C180.376 14.2604 180.237 14.1522 180.16 14.1059C180.083 14.0595 180.006 14.0286 179.913 13.9977C179.573 13.8896 179.171 13.9205 178.831 14.1213C178.492 14.3222 178.26 14.6466 178.183 15.002C178.105 15.3573 178.183 15.7281 178.399 16.0526C178.615 16.377 178.94 16.5779 179.264 16.6706C179.588 16.7633 179.928 16.7324 180.222 16.5624C180.515 16.3925 180.716 16.1144 180.794 15.7899C180.809 15.7127 180.824 15.62 180.84 15.5427C180.84 15.45 180.84 15.3728 180.84 15.2801C180.84 15.0947 180.778 14.9247 180.701 14.7393C180.624 14.5694 180.5 14.4149 180.376 14.2913V14.2604Z" fill="#C2964B"/>
<path d="M204.772 32.1051C203.582 31.2399 202.022 31.4562 200.801 32.136C199.38 32.9394 198.19 34.1136 197.371 35.535C196.939 36.2766 196.568 37.1418 196.63 38.0224C196.692 38.8876 197.186 39.7374 198.082 39.9537C198.577 40.0773 199.133 39.9691 199.488 39.5829C199.643 39.4129 199.751 39.2121 199.813 39.0112C199.936 38.6404 199.813 38.2078 199.519 37.9452C199.395 37.837 199.256 37.7752 199.133 37.7289C198.916 37.6671 198.685 37.6671 198.484 37.7598C198.407 37.7907 198.345 37.837 198.314 37.8834C198.283 37.9297 198.252 37.9606 198.237 37.9915C198.237 38.0224 198.237 38.0379 198.237 38.0379C198.237 38.0379 198.268 38.0379 198.283 38.0379C198.53 37.9297 198.777 37.8988 199.04 38.0224C199.133 38.0688 199.225 38.1306 199.287 38.2078C199.334 38.2696 199.38 38.3314 199.395 38.4087C199.442 38.5632 199.442 38.7331 199.38 38.8876C199.334 39.0112 199.256 39.1348 199.133 39.243C199.055 39.3202 198.947 39.3666 198.839 39.4129C198.638 39.4593 198.453 39.4593 198.252 39.3975C198.082 39.3511 197.928 39.243 197.804 39.1194C197.356 38.6713 197.325 37.9915 197.464 37.4199C197.557 37.0336 197.742 36.6474 197.943 36.3075C198.19 35.9058 198.453 35.5041 198.762 35.1487C199.364 34.4226 200.075 33.8355 200.879 33.3411C201.064 33.2329 201.234 33.1402 201.419 33.0475C201.821 32.8621 202.238 32.7385 202.686 32.6767C203.258 32.6458 203.83 32.7849 204.231 33.1866C204.37 33.3565 204.478 33.5419 204.54 33.7428C204.587 33.9282 204.602 34.129 204.587 34.3299C204.571 34.5153 204.509 34.7007 204.432 34.8706C204.37 34.9788 204.308 35.0715 204.216 35.1642C203.953 35.4114 203.613 35.5659 203.242 35.535C203.119 35.535 203.011 35.4886 202.903 35.4423C202.794 35.3805 202.702 35.3032 202.624 35.2105C202.547 35.1178 202.501 35.0097 202.47 34.9015C202.439 34.7934 202.424 34.6852 202.424 34.5925C202.424 34.4998 202.454 34.4071 202.485 34.3299C202.485 34.3144 202.516 34.2835 202.532 34.2681C202.609 34.1599 202.702 34.0981 202.825 34.0363C202.964 33.9745 203.119 33.9436 203.258 33.9436C203.459 33.9436 203.629 34.0054 203.814 34.0827C203.876 34.1136 203.922 34.1136 203.953 34.0827C203.984 34.0672 203.999 34.0209 203.999 33.9436C203.999 33.8355 203.938 33.7273 203.86 33.6346C203.768 33.511 203.629 33.3874 203.412 33.3102C203.196 33.2175 202.933 33.1711 202.624 33.2175C202.006 33.3256 201.543 33.7891 201.419 34.3917C201.373 34.6234 201.373 34.8552 201.419 35.0869C201.466 35.3187 201.558 35.5659 201.697 35.7822C202.006 36.2766 202.547 36.601 203.134 36.6474C203.845 36.7246 204.571 36.4465 205.066 35.9367C205.22 35.7822 205.374 35.5504 205.483 35.3496C205.637 35.056 205.714 34.7316 205.745 34.3917C205.776 34.0518 205.745 33.7119 205.653 33.3874C205.498 32.8776 205.189 32.4141 204.772 32.1051Z" fill="#C2964B"/>
<path d="M195.208 33.65C194.328 32.7694 193.231 31.966 192.01 31.6415C191.238 31.4407 190.419 31.487 189.708 31.8269C189.059 32.1359 188.565 32.6921 188.364 33.3874C188.271 33.7273 188.24 34.0672 188.271 34.3916C188.302 34.7315 188.395 35.056 188.534 35.3495C188.642 35.5658 188.797 35.7821 188.951 35.9366C189.446 36.4465 190.172 36.7246 190.882 36.6473C191.469 36.601 191.995 36.2765 192.319 35.7821C192.458 35.5658 192.551 35.3186 192.597 35.0869C192.644 34.8551 192.644 34.6079 192.597 34.3916C192.474 33.7736 192.01 33.3256 191.392 33.2174C191.083 33.1711 190.821 33.2174 190.604 33.3101C190.388 33.4028 190.249 33.5264 190.156 33.6346C190.094 33.7118 190.033 33.82 190.017 33.9436C190.017 34.0208 190.017 34.0672 190.064 34.0826C190.094 34.0981 190.141 34.0826 190.203 34.0826C190.388 34.0054 190.558 33.9436 190.759 33.9436C190.882 33.9436 191.037 33.959 191.191 34.0363C191.3 34.0981 191.408 34.1599 191.469 34.268C191.469 34.2989 191.5 34.3144 191.516 34.3453C191.547 34.438 191.578 34.5152 191.578 34.6079C191.578 34.7006 191.578 34.8088 191.547 34.9169C191.516 35.0251 191.469 35.1332 191.392 35.2259C191.315 35.3186 191.222 35.3959 191.114 35.4577C191.006 35.504 190.898 35.5504 190.774 35.5504C190.403 35.5813 190.064 35.4268 189.801 35.1796C189.724 35.0869 189.646 34.9942 189.585 34.886C189.507 34.7315 189.446 34.5461 189.43 34.3453C189.415 34.1599 189.43 33.9436 189.476 33.7582C189.538 33.5419 189.646 33.3565 189.785 33.202C190.203 32.8003 190.774 32.6612 191.33 32.6921C191.778 32.7539 192.196 32.8621 192.597 33.0629C192.783 33.1556 192.968 33.2483 193.138 33.3565C193.632 33.6655 194.081 33.9899 194.513 34.3916C195.224 35.0405 195.826 35.8285 196.259 36.6937C196.63 37.4353 196.877 38.5013 196.213 39.1657C196.089 39.2893 195.919 39.382 195.765 39.4438C195.579 39.5056 195.378 39.521 195.177 39.4592C195.069 39.4129 194.977 39.3665 194.884 39.2893C194.776 39.1966 194.699 39.073 194.637 38.9339C194.559 38.7949 194.575 38.6095 194.621 38.455C194.652 38.3777 194.683 38.3159 194.729 38.2541C194.807 38.1769 194.884 38.1151 194.977 38.0687C195.224 37.9451 195.471 37.976 195.734 38.0842C195.765 38.0842 195.78 38.0842 195.78 38.0842C195.78 38.0842 195.78 38.0533 195.78 38.0378C195.78 38.0069 195.749 37.976 195.703 37.9297C195.656 37.8833 195.61 37.8524 195.533 37.8061C195.332 37.7134 195.1 37.7134 194.884 37.7752C194.76 37.8061 194.621 37.8833 194.498 37.9915C194.204 38.2387 194.096 38.6867 194.204 39.0575C194.266 39.2584 194.359 39.4592 194.529 39.6292C194.884 40.0154 195.44 40.1236 195.935 40C196.506 39.8609 196.97 39.4283 197.186 38.8876C197.588 37.9142 197.294 36.8791 196.862 35.9984C196.444 35.1487 195.873 34.3762 195.208 33.7118V33.65Z" fill="#C2964B"/>
<path d="M197 31.518C196.537 31.0236 195.347 30.4983 194.528 31.9351C195.486 32.3523 197 34.6698 197 34.6698C197 34.6698 198.514 32.3523 199.472 31.9351C198.653 30.5137 197.464 31.039 197 31.518Z" fill="#C2964B"/>
<path d="M197.541 27.2074C197.433 26.6821 197.016 26.3268 197.001 26.3268C197.001 26.3268 196.568 26.6821 196.46 27.2074C196.135 26.9602 195.795 26.8366 195.795 26.8366C195.749 26.8366 195.672 27.5782 196.182 28.3044C196.444 28.6906 196.661 28.9996 196.815 29.2005C196.877 29.2005 196.939 29.185 197.001 29.185C197.062 29.185 197.124 29.185 197.186 29.2005C197.325 28.9996 197.541 28.6906 197.819 28.3044C198.329 27.5782 198.237 26.8366 198.206 26.8366C198.206 26.8366 197.866 26.9757 197.541 27.2074Z" fill="#C2964B"/>
<path d="M203.366 3.53807C203.366 3.53807 203.351 3.53807 203.335 3.53807C202.764 3.56897 202.208 3.93977 201.775 4.29512C201.296 4.69682 200.863 5.14487 200.477 5.65472C199.72 6.64352 199.102 7.80226 198.762 9.00736C198.515 9.84166 198.5 10.4288 198.639 10.506C198.7 10.5369 198.809 10.4751 198.855 10.4442C198.978 10.367 199.087 10.2743 199.195 10.1816C199.643 9.79531 200.075 9.36271 200.493 8.94556C200.956 8.48206 201.42 8.03401 201.883 7.57051C202.347 7.10702 202.826 6.65897 203.258 6.16457C203.644 5.73197 204.092 5.23757 204.231 4.65047C204.293 4.37237 204.262 4.09427 204.077 3.86252C203.892 3.63077 203.644 3.52262 203.335 3.53807H203.366Z" fill="#C2964B"/>
<path d="M204.107 3.86249C203.922 3.63074 204.293 4.09424 204.107 3.86249V3.86249Z" fill="#C2964B"/>
<path d="M210.071 8.26574C209.809 8.03399 209.391 7.84859 208.882 7.75589C208.835 7.75589 208.789 7.74044 208.758 7.72499C207.522 7.52414 206.193 7.77134 205.05 8.28119C203.922 8.77559 202.887 9.51719 202.114 10.4751C201.79 10.8768 201.589 11.2321 201.466 11.5102C201.404 11.6493 201.373 11.7574 201.357 11.8501C201.357 11.9428 201.357 11.9892 201.373 12.0201C201.404 12.051 201.466 12.051 201.543 12.0201C201.728 11.9737 201.898 11.881 202.068 11.8038C202.254 11.7111 202.439 11.6184 202.624 11.5257C203.783 10.9695 204.988 10.5523 206.255 10.3051C206.889 10.1815 207.537 10.1043 208.171 10.0116C208.727 9.93433 209.33 9.88798 209.839 9.64078C209.979 9.56353 210.087 9.48628 210.179 9.39359C210.272 9.28544 210.334 9.16184 210.365 9.02279C210.396 8.86829 210.38 8.74469 210.334 8.60564C210.288 8.48204 210.195 8.34299 210.056 8.23484L210.071 8.26574Z" fill="#C2964B"/>
<path d="M189.893 3.86249C189.708 4.09424 190.079 3.63074 189.893 3.86249V3.86249Z" fill="#C2964B"/>
<path d="M195.224 8.97642C194.884 7.77132 194.266 6.61257 193.493 5.62377C193.107 5.12937 192.69 4.66587 192.195 4.27962C191.763 3.92427 191.207 3.56892 190.635 3.53802C190.326 3.53802 190.079 3.63072 189.893 3.86247C189.708 4.09422 189.677 4.37232 189.739 4.65042C189.832 5.08302 190.125 5.45382 190.388 5.79372C190.789 6.28812 191.253 6.75162 191.716 7.19967C192.18 7.66317 192.659 8.11122 193.122 8.57472C193.57 9.00732 194.003 9.45537 194.467 9.87252C194.652 10.0425 194.837 10.2124 195.038 10.3515C195.115 10.3978 195.27 10.5214 195.363 10.4751C195.502 10.4133 195.471 9.81072 195.239 8.97642C195.239 8.97642 195.239 8.96097 195.239 8.94552L195.224 8.97642Z" fill="#C2964B"/>
<path d="M192.551 11.5257C192.427 11.2476 192.226 10.8922 191.902 10.4905C191.871 10.4596 191.856 10.4287 191.825 10.3978C191.021 9.43995 189.971 8.69835 188.827 8.23485C187.684 7.77135 186.371 7.52415 185.135 7.77135C184.61 7.8795 184.208 8.04945 183.945 8.2812C183.822 8.38935 183.729 8.51295 183.667 8.652C183.621 8.79105 183.605 8.91465 183.636 9.06915C183.667 9.2082 183.729 9.3318 183.822 9.43995C183.914 9.5481 184.038 9.62535 184.161 9.68715C184.532 9.87255 184.965 9.93434 185.367 9.99614C185.985 10.0888 186.618 10.1506 187.236 10.2588C187.885 10.3669 188.518 10.506 189.152 10.6914C189.754 10.8768 190.357 11.0931 190.929 11.3557C191.207 11.4793 191.485 11.6184 191.747 11.742C191.964 11.8501 192.195 11.9892 192.443 12.051C192.52 12.0664 192.582 12.0664 192.613 12.051C192.644 12.0201 192.644 11.9737 192.628 11.881C192.628 11.7883 192.582 11.6802 192.52 11.5411L192.551 11.5257Z" fill="#C2964B"/>
<path d="M197.001 0C194.606 0 196.367 9.57899 197.001 9.57899C197.634 9.57899 199.396 0 197.001 0Z" fill="#C2964B"/>
<path d="M218.599 24.5036C218.475 24.0247 218.275 23.6076 217.95 23.2059C217.888 23.1286 217.842 23.0823 217.749 22.9896C217.657 22.8969 217.564 22.8042 217.471 22.7269C217.379 22.6651 217.286 22.5879 217.193 22.5261C217.1 22.4643 216.992 22.4179 216.9 22.3716C216.498 22.1862 216.081 22.078 215.648 22.078C215.555 22.078 215.478 22.078 215.385 22.078C215.277 22.0935 215.169 22.1089 215.076 22.1398C214.86 22.2016 214.644 22.2634 214.489 22.3561C214.165 22.5261 213.871 22.7578 213.671 23.0359C213.562 23.1595 213.485 23.314 213.408 23.4531C213.346 23.5767 213.3 23.7312 213.269 23.8702C213.269 23.8857 213.269 23.9011 213.269 23.932C213.238 24.1174 213.222 24.5037 213.284 24.7199C213.3 24.8435 213.346 24.9517 213.392 25.0444C213.439 25.1525 213.485 25.2452 213.531 25.3225C213.624 25.4924 213.763 25.616 213.871 25.7087C213.995 25.8014 214.103 25.8632 214.196 25.8941C214.397 25.9559 214.489 25.9559 214.52 25.8941C214.582 25.786 214.242 25.5852 214.103 25.029C214.072 24.9672 214.072 24.8899 214.057 24.8126C214.057 24.7354 214.041 24.6581 214.057 24.5809C214.057 24.5036 214.057 24.4264 214.072 24.3646C214.072 24.3183 214.119 24.1947 214.149 24.0865C214.258 23.8239 214.567 23.484 214.968 23.3449C215.076 23.2986 215.154 23.2986 215.231 23.2677C215.324 23.2677 215.432 23.2522 215.525 23.2522C215.432 23.2522 215.494 23.2522 215.478 23.2522C215.509 23.2522 215.555 23.2522 215.586 23.2522C215.803 23.2831 216.034 23.3449 216.251 23.484L216.405 23.5921L216.56 23.7157L216.668 23.8239C216.668 23.8239 216.776 23.9629 216.822 24.0247C216.946 24.2101 217.07 24.5037 217.116 24.7818C217.147 24.9208 217.162 25.0753 217.162 25.2298C217.162 25.307 217.162 25.3688 217.162 25.4306C217.162 25.5233 217.147 25.616 217.131 25.7087C217.131 25.7087 217.131 25.7551 217.131 25.7396C217.131 25.7396 217.131 25.7242 217.131 25.7087C217.1 25.8478 217.07 26.0177 217.008 26.1568C216.961 26.3113 216.884 26.4503 216.807 26.6048C216.637 26.8829 216.436 27.161 216.158 27.3773C215.957 27.5473 215.586 27.779 215.277 27.8563C214.953 27.949 214.613 27.9953 214.273 27.9644C213.949 27.9335 213.578 27.8254 213.362 27.7327C213.253 27.7018 213.099 27.5936 212.991 27.5164C212.991 27.5164 212.975 27.5164 212.944 27.4855C212.944 27.4855 212.96 27.4855 212.975 27.5009C212.821 27.3773 212.666 27.2537 212.527 27.0992C211.847 26.3731 211.26 25.5697 210.457 24.9671C210.287 24.859 210.132 24.7508 209.963 24.6427C209.314 24.2256 208.649 23.9784 208.031 23.8239C206.78 23.5149 205.745 23.623 205.049 23.793C204.401 23.9938 204.092 24.1946 204.107 24.3028C204.122 24.4264 204.509 24.411 205.173 24.411C205.776 24.4419 206.687 24.5191 207.707 24.9054C208.201 25.1062 208.742 25.3688 209.236 25.7396C209.36 25.8323 209.484 25.925 209.607 26.0332C209.808 26.2186 209.993 26.4349 210.194 26.6203C210.596 27.1301 210.998 27.6554 211.415 28.1498C211.616 28.3661 211.847 28.567 212.064 28.7524C212.203 28.8605 212.388 28.9841 212.543 29.0614C213.083 29.3549 213.562 29.4631 214.103 29.5403C214.644 29.5867 215.185 29.5403 215.725 29.3858C216.282 29.2159 216.683 28.9687 217.162 28.5979C217.579 28.258 217.888 27.8254 218.151 27.3773C218.275 27.1456 218.383 26.9138 218.445 26.6666C218.615 26.2186 218.676 25.6469 218.63 25.1834C218.615 24.9362 218.568 24.689 218.522 24.4573L218.599 24.5036Z" fill="#C2964B"/>
<path d="M213.007 27.5319C213.007 27.5319 213.038 27.5473 213.053 27.5628C213.053 27.5628 213.038 27.5628 213.022 27.5473L213.007 27.5319Z" fill="#C2964B"/>
<path d="M180.963 27.5473C180.963 27.5473 180.978 27.5473 180.994 27.5164C180.994 27.5164 180.978 27.5164 180.963 27.5319V27.5473Z" fill="#C2964B"/>
<path d="M179.464 25.9251C179.402 25.8169 179.495 25.9714 179.464 25.9251V25.9251Z" fill="#C2964B"/>
<path d="M188.874 23.8548C188.178 23.6848 187.143 23.5767 185.892 23.8857C185.274 24.0402 184.609 24.2874 183.961 24.7045C183.806 24.8127 183.636 24.9208 183.466 25.029C182.663 25.6315 182.076 26.4349 181.396 27.1611C181.257 27.3001 181.102 27.4237 180.948 27.5628C180.948 27.5628 180.963 27.5628 180.979 27.5473C180.963 27.5473 180.948 27.5628 180.948 27.5782C180.824 27.6555 180.685 27.7636 180.577 27.7945C180.361 27.9027 179.99 27.9954 179.665 28.0263C179.326 28.0572 178.986 28.0263 178.661 27.9181C178.352 27.8409 177.981 27.6091 177.781 27.4392C177.518 27.2229 177.317 26.9448 177.132 26.6667C177.054 26.5276 176.977 26.3731 176.931 26.2186C176.869 26.0796 176.838 25.9251 176.807 25.7706C176.807 25.7706 176.807 25.7706 176.807 25.786C176.807 25.8015 176.807 25.786 176.807 25.7706C176.807 25.6779 176.776 25.5697 176.776 25.477C176.776 25.4152 176.776 25.3534 176.776 25.2762C176.776 25.1217 176.792 24.9672 176.823 24.8281C176.869 24.55 177.008 24.2565 177.132 24.0711C177.178 24.0093 177.255 23.9011 177.286 23.8702L177.394 23.7621L177.549 23.6385L177.703 23.5303C177.92 23.4067 178.151 23.3295 178.368 23.2986C178.399 23.2986 178.445 23.2986 178.476 23.2986C178.46 23.2986 178.522 23.2986 178.429 23.2986C178.522 23.2986 178.63 23.2986 178.723 23.314C178.8 23.3295 178.893 23.3449 178.986 23.3913C179.387 23.5303 179.696 23.8702 179.805 24.1329C179.835 24.241 179.882 24.3646 179.882 24.411C179.882 24.4728 179.913 24.55 179.897 24.6273C179.897 24.7045 179.897 24.7818 179.897 24.859C179.897 24.9363 179.882 24.9981 179.851 25.0753C179.712 25.6161 179.372 25.8169 179.434 25.9405C179.465 25.9869 179.557 25.9869 179.758 25.9405C179.851 25.9096 179.959 25.8324 180.083 25.7551C180.191 25.647 180.314 25.5388 180.423 25.3689C180.484 25.2916 180.531 25.1989 180.562 25.0908C180.608 24.9981 180.639 24.8745 180.67 24.7663C180.747 24.55 180.716 24.1638 180.685 23.9784C180.685 23.9629 180.685 23.932 180.685 23.9166C180.639 23.7775 180.608 23.6385 180.546 23.4994C180.469 23.3604 180.392 23.2059 180.283 23.0823C180.083 22.8042 179.805 22.5724 179.465 22.4025C179.31 22.3098 179.109 22.2325 178.878 22.1862C178.785 22.1553 178.661 22.1398 178.569 22.1244C178.476 22.1244 178.399 22.1244 178.306 22.1244C177.889 22.1244 177.456 22.2171 177.054 22.4179C176.962 22.4643 176.854 22.5261 176.761 22.5724C176.668 22.6342 176.575 22.696 176.483 22.7733C176.39 22.8505 176.297 22.9432 176.205 23.0359C176.112 23.1286 176.081 23.175 176.004 23.2522C175.679 23.6694 175.494 24.0711 175.355 24.55C175.293 24.7818 175.262 25.029 175.247 25.2762C175.2 25.7397 175.278 26.3113 175.432 26.7594C175.509 27.0066 175.618 27.2383 175.726 27.4701C175.973 27.9181 176.297 28.3507 176.715 28.6906C177.193 29.0769 177.595 29.3086 178.151 29.4786C178.692 29.6331 179.233 29.6949 179.774 29.6331C180.314 29.5558 180.793 29.4477 181.334 29.1541C181.489 29.0769 181.674 28.9533 181.813 28.8451C182.029 28.6597 182.261 28.4589 182.462 28.2426C182.879 27.7482 183.281 27.2229 183.682 26.713C183.883 26.5122 184.069 26.3113 184.27 26.1259C184.393 26.0332 184.517 25.9405 184.64 25.8324C185.135 25.4616 185.66 25.1989 186.17 24.9981C187.19 24.6118 188.086 24.5346 188.704 24.5037C189.353 24.5037 189.739 24.5037 189.77 24.3955C189.785 24.2874 189.476 24.0865 188.827 23.8857L188.874 23.8548Z" fill="#C2964B"/>
</g>
<line x1="234.723" y1="19.5" x2="393.723" y2="19.5" stroke="#C2964B"/>
<defs>
<clipPath id="clip0_1427_30826">
<rect width="43.4453" height="40" fill="white" transform="translate(175.277)"/>
</clipPath>
</defs>
</svg>
