<svg width="60" height="60" viewBox="0 0 60 60" fill="none" xmlns="http://www.w3.org/2000/svg">
<rect width="60" height="60" rx="30" fill="white"/>
<path fill-rule="evenodd" clip-rule="evenodd" d="M42.607 17.2313C39.2395 13.8595 34.7608 12.0017 29.9889 12C20.1558 12 12.1531 20.0018 12.1497 29.8375C12.148 32.9817 12.97 36.0507 14.531 38.7554L12 48L21.4568 45.5195C24.0621 46.9411 26.996 47.6895 29.9812 47.6904H29.9889C39.8202 47.6904 47.8238 39.6877 47.8272 29.852C47.8289 25.0852 45.9754 20.604 42.607 17.2322V17.2313ZM29.9889 44.6778H29.9829C27.3227 44.677 24.7131 43.9619 22.4362 42.6113L21.8947 42.2897L16.2827 43.7617L17.7805 38.29L17.4281 37.7289C15.944 35.3682 15.1597 32.6396 15.1614 29.8384C15.1648 21.6638 21.816 15.0125 29.9949 15.0125C33.9551 15.0143 37.6777 16.5582 40.4772 19.3612C43.2768 22.1633 44.8172 25.8892 44.8156 29.8503C44.8121 38.0258 38.1609 44.677 29.9889 44.677V44.6778ZM38.1215 33.5737C37.6759 33.3504 35.4846 32.2726 35.0756 32.1239C34.6668 31.975 34.37 31.9006 34.0732 32.3471C33.7764 32.7936 32.9219 33.7978 32.6619 34.0946C32.4018 34.3922 32.1418 34.429 31.6961 34.2057C31.2506 33.9825 29.8144 33.5121 28.1114 31.9938C26.7865 30.8117 25.8917 29.3525 25.6318 28.906C25.3717 28.4595 25.6044 28.2183 25.8267 27.9968C26.0269 27.7966 26.2724 27.4759 26.4956 27.2158C26.7189 26.9558 26.7925 26.7694 26.9412 26.4725C27.0901 26.1748 27.0157 25.9149 26.9045 25.6916C26.7933 25.4684 25.9021 23.2743 25.53 22.3822C25.1681 21.5132 24.8004 21.6313 24.5275 21.6167C24.2674 21.6039 23.9707 21.6013 23.673 21.6013C23.3753 21.6013 22.8929 21.7125 22.484 22.159C22.0752 22.6055 20.9239 23.6841 20.9239 25.8772C20.9239 28.0703 22.5209 30.1908 22.7441 30.4884C22.9673 30.7861 25.8874 35.2878 30.3584 37.2192C31.4216 37.6785 32.2521 37.953 32.8996 38.1584C33.9672 38.4979 34.9388 38.4501 35.7069 38.3354C36.5632 38.2071 38.344 37.2568 38.7152 36.2158C39.0864 35.1748 39.0864 34.2819 38.9752 34.0962C38.8641 33.9106 38.5664 33.7986 38.1207 33.5754L38.1215 33.5737Z" fill="#25D366"/>
</svg>
